<mxfile host="app.diagrams.net" modified="2021-05-21T07:34:24.602Z" agent="5.0 (Macintosh; Intel Mac OS X 10_14_6) AppleWebKit/537.36 (KHTML, like Gecko) Chrome/90.0.4430.212 Safari/537.36" etag="v1nz0kzbQAsEBPv-KX-Y" version="14.6.13" type="github">
  <diagram id="MZMZoFBOgGfRN5yEfc8p" name="Page-1">
    <mxGraphModel dx="1426" dy="755" grid="1" gridSize="10" guides="1" tooltips="1" connect="1" arrows="1" fold="1" page="0" pageScale="1" pageWidth="827" pageHeight="1169" math="0" shadow="0">
      <root>
        <mxCell id="0" />
        <mxCell id="1" parent="0" />
        <mxCell id="d7HxhJSsy20iTbakXnzt-5" value="" style="rounded=0;whiteSpace=wrap;html=1;" parent="1" vertex="1">
          <mxGeometry x="290" y="610" width="380" height="140" as="geometry" />
        </mxCell>
        <mxCell id="d7HxhJSsy20iTbakXnzt-1" value="北京" style="shape=cylinder3;whiteSpace=wrap;html=1;boundedLbl=1;backgroundOutline=1;size=15;" parent="1" vertex="1">
          <mxGeometry x="320" y="640" width="60" height="80" as="geometry" />
        </mxCell>
        <mxCell id="d7HxhJSsy20iTbakXnzt-2" value="上海" style="shape=cylinder3;whiteSpace=wrap;html=1;boundedLbl=1;backgroundOutline=1;size=15;" parent="1" vertex="1">
          <mxGeometry x="410" y="640" width="60" height="80" as="geometry" />
        </mxCell>
        <mxCell id="d7HxhJSsy20iTbakXnzt-3" value="广州" style="shape=cylinder3;whiteSpace=wrap;html=1;boundedLbl=1;backgroundOutline=1;size=15;" parent="1" vertex="1">
          <mxGeometry x="500" y="640" width="60" height="80" as="geometry" />
        </mxCell>
        <mxCell id="d7HxhJSsy20iTbakXnzt-4" value="深圳" style="shape=cylinder3;whiteSpace=wrap;html=1;boundedLbl=1;backgroundOutline=1;size=15;" parent="1" vertex="1">
          <mxGeometry x="590" y="640" width="60" height="80" as="geometry" />
        </mxCell>
        <mxCell id="d7HxhJSsy20iTbakXnzt-6" value="活跃群" style="text;html=1;strokeColor=none;fillColor=none;align=center;verticalAlign=middle;whiteSpace=wrap;rounded=0;" parent="1" vertex="1">
          <mxGeometry x="290" y="610" width="90" height="20" as="geometry" />
        </mxCell>
        <mxCell id="d7HxhJSsy20iTbakXnzt-8" style="edgeStyle=orthogonalEdgeStyle;rounded=0;orthogonalLoop=1;jettySize=auto;html=1;exitX=1;exitY=0.5;exitDx=0;exitDy=0;exitPerimeter=0;entryX=0;entryY=0.5;entryDx=0;entryDy=0;" parent="1" source="d7HxhJSsy20iTbakXnzt-7" target="d7HxhJSsy20iTbakXnzt-5" edge="1">
          <mxGeometry relative="1" as="geometry" />
        </mxCell>
        <mxCell id="d7HxhJSsy20iTbakXnzt-7" value="flink 群消息" style="shape=tape;whiteSpace=wrap;html=1;" parent="1" vertex="1">
          <mxGeometry x="110" y="645" width="120" height="70" as="geometry" />
        </mxCell>
        <mxCell id="d7HxhJSsy20iTbakXnzt-13" value="cache" style="rounded=0;whiteSpace=wrap;html=1;" parent="1" vertex="1">
          <mxGeometry x="290" y="550" width="380" height="50" as="geometry" />
        </mxCell>
        <mxCell id="d7HxhJSsy20iTbakXnzt-16" value="过滤器" style="rounded=0;whiteSpace=wrap;html=1;" parent="1" vertex="1">
          <mxGeometry x="290" y="490" width="380" height="50" as="geometry" />
        </mxCell>
        <mxCell id="AW4j3LvFWlFgubxEfCZ0-1" value="mysql" style="shape=cylinder3;whiteSpace=wrap;html=1;boundedLbl=1;backgroundOutline=1;size=15;" parent="1" vertex="1">
          <mxGeometry x="60" y="840" width="60" height="80" as="geometry" />
        </mxCell>
        <mxCell id="AW4j3LvFWlFgubxEfCZ0-2" value="mysql" style="rounded=0;whiteSpace=wrap;html=1;" parent="1" vertex="1">
          <mxGeometry x="280" y="1050" width="380" height="50" as="geometry" />
        </mxCell>
        <mxCell id="AW4j3LvFWlFgubxEfCZ0-3" value="loader" style="rounded=0;whiteSpace=wrap;html=1;" parent="1" vertex="1">
          <mxGeometry x="480" y="990" width="180" height="50" as="geometry" />
        </mxCell>
        <mxCell id="AW4j3LvFWlFgubxEfCZ0-4" value="schedule" style="rounded=0;whiteSpace=wrap;html=1;" parent="1" vertex="1">
          <mxGeometry x="280" y="990" width="190" height="50" as="geometry" />
        </mxCell>
        <mxCell id="AW4j3LvFWlFgubxEfCZ0-8" value="" style="curved=1;endArrow=classic;html=1;" parent="1" edge="1">
          <mxGeometry width="50" height="50" relative="1" as="geometry">
            <mxPoint x="605" y="1020" as="sourcePoint" />
            <mxPoint x="610" y="1066.6666666666667" as="targetPoint" />
            <Array as="points">
              <mxPoint x="605" y="1020" />
              <mxPoint x="635" y="1050" />
            </Array>
          </mxGeometry>
        </mxCell>
        <mxCell id="AW4j3LvFWlFgubxEfCZ0-12" value="" style="curved=1;endArrow=none;html=1;endFill=0;startArrow=blockThin;startFill=1;" parent="1" edge="1">
          <mxGeometry width="50" height="50" relative="1" as="geometry">
            <mxPoint x="600" y="1030" as="sourcePoint" />
            <mxPoint x="605" y="1076.996666666667" as="targetPoint" />
            <Array as="points">
              <mxPoint x="575" y="1060" />
            </Array>
          </mxGeometry>
        </mxCell>
        <mxCell id="HO5yLY1XyyV35MQ5ue3K-1" value="MySQL" style="rounded=0;whiteSpace=wrap;html=1;fillColor=#66B2FF;" parent="1" vertex="1">
          <mxGeometry x="340" y="350" width="335" height="50" as="geometry" />
        </mxCell>
        <mxCell id="HO5yLY1XyyV35MQ5ue3K-2" value="Redis" style="rounded=0;whiteSpace=wrap;html=1;fillColor=#99CCFF;" parent="1" vertex="1">
          <mxGeometry x="340" y="290" width="335" height="50" as="geometry" />
        </mxCell>
        <mxCell id="HO5yLY1XyyV35MQ5ue3K-3" value="更新服务" style="rounded=0;whiteSpace=wrap;html=1;" parent="1" vertex="1">
          <mxGeometry x="340" y="250" width="170" height="30" as="geometry" />
        </mxCell>
        <mxCell id="HO5yLY1XyyV35MQ5ue3K-4" value="" style="rounded=0;whiteSpace=wrap;html=1;" parent="1" vertex="1">
          <mxGeometry x="520" y="210" width="155" height="70" as="geometry" />
        </mxCell>
        <mxCell id="HO5yLY1XyyV35MQ5ue3K-5" value="缓存层" style="text;html=1;strokeColor=none;fillColor=none;align=center;verticalAlign=middle;whiteSpace=wrap;rounded=0;" parent="1" vertex="1">
          <mxGeometry x="350" y="305" width="40" height="20" as="geometry" />
        </mxCell>
        <mxCell id="HO5yLY1XyyV35MQ5ue3K-6" value="持久层" style="text;html=1;strokeColor=none;fillColor=none;align=center;verticalAlign=middle;whiteSpace=wrap;rounded=0;" parent="1" vertex="1">
          <mxGeometry x="350" y="365" width="40" height="20" as="geometry" />
        </mxCell>
        <mxCell id="HO5yLY1XyyV35MQ5ue3K-7" value="Flink实时内容评分" style="rounded=0;whiteSpace=wrap;html=1;" parent="1" vertex="1">
          <mxGeometry x="340" y="210" width="170" height="30" as="geometry" />
        </mxCell>
        <mxCell id="HO5yLY1XyyV35MQ5ue3K-10" value="JVM cache" style="rounded=1;whiteSpace=wrap;html=1;spacing=2;fillColor=#CCE5FF;" parent="1" vertex="1">
          <mxGeometry x="561.5" y="240" width="100" height="30" as="geometry" />
        </mxCell>
        <mxCell id="HO5yLY1XyyV35MQ5ue3K-9" value="JVM cache" style="rounded=1;whiteSpace=wrap;html=1;spacing=2;fillColor=#CCE5FF;" parent="1" vertex="1">
          <mxGeometry x="548.5" y="240" width="100" height="30" as="geometry" />
        </mxCell>
        <mxCell id="HO5yLY1XyyV35MQ5ue3K-12" value="查询服务" style="text;html=1;strokeColor=none;fillColor=none;align=center;verticalAlign=middle;whiteSpace=wrap;rounded=0;" parent="1" vertex="1">
          <mxGeometry x="561.5" y="210" width="67" height="20" as="geometry" />
        </mxCell>
        <mxCell id="HO5yLY1XyyV35MQ5ue3K-8" value="JVM cache" style="rounded=1;whiteSpace=wrap;html=1;fillColor=#CCE5FF;" parent="1" vertex="1">
          <mxGeometry x="533.5" y="240" width="100" height="30" as="geometry" />
        </mxCell>
        <mxCell id="HO5yLY1XyyV35MQ5ue3K-13" value="事件&lt;br&gt;总线" style="rounded=0;whiteSpace=wrap;html=1;fillColor=#FFFFFF;" parent="1" vertex="1">
          <mxGeometry x="680" y="210" width="50" height="190" as="geometry" />
        </mxCell>
        <mxCell id="HO5yLY1XyyV35MQ5ue3K-23" style="edgeStyle=none;rounded=0;orthogonalLoop=1;jettySize=auto;html=1;exitX=0.855;exitY=0;exitDx=0;exitDy=4.35;exitPerimeter=0;entryX=0.13;entryY=0.77;entryDx=0;entryDy=0;entryPerimeter=0;dashed=1;" parent="1" source="HO5yLY1XyyV35MQ5ue3K-14" target="HO5yLY1XyyV35MQ5ue3K-20" edge="1">
          <mxGeometry relative="1" as="geometry" />
        </mxCell>
        <mxCell id="HO5yLY1XyyV35MQ5ue3K-14" value="" style="shape=cylinder3;whiteSpace=wrap;html=1;boundedLbl=1;backgroundOutline=1;size=15;fillColor=#FFFFFF;" parent="1" vertex="1">
          <mxGeometry x="1020" y="265" width="40" height="60" as="geometry" />
        </mxCell>
        <mxCell id="HO5yLY1XyyV35MQ5ue3K-24" style="edgeStyle=none;rounded=0;orthogonalLoop=1;jettySize=auto;html=1;exitX=0.5;exitY=0;exitDx=0;exitDy=0;exitPerimeter=0;entryX=0.31;entryY=0.8;entryDx=0;entryDy=0;entryPerimeter=0;dashed=1;" parent="1" source="HO5yLY1XyyV35MQ5ue3K-17" target="HO5yLY1XyyV35MQ5ue3K-20" edge="1">
          <mxGeometry relative="1" as="geometry" />
        </mxCell>
        <mxCell id="HO5yLY1XyyV35MQ5ue3K-17" value="" style="shape=cylinder3;whiteSpace=wrap;html=1;boundedLbl=1;backgroundOutline=1;size=15;fillColor=#FFFFFF;" parent="1" vertex="1">
          <mxGeometry x="1100" y="330" width="40" height="60" as="geometry" />
        </mxCell>
        <mxCell id="HO5yLY1XyyV35MQ5ue3K-22" style="edgeStyle=none;rounded=0;orthogonalLoop=1;jettySize=auto;html=1;exitX=0.855;exitY=0;exitDx=0;exitDy=4.35;exitPerimeter=0;entryX=0.55;entryY=0.95;entryDx=0;entryDy=0;entryPerimeter=0;dashed=1;" parent="1" source="HO5yLY1XyyV35MQ5ue3K-18" target="HO5yLY1XyyV35MQ5ue3K-20" edge="1">
          <mxGeometry relative="1" as="geometry" />
        </mxCell>
        <mxCell id="HO5yLY1XyyV35MQ5ue3K-18" value="" style="shape=cylinder3;whiteSpace=wrap;html=1;boundedLbl=1;backgroundOutline=1;size=15;fillColor=#FFFFFF;" parent="1" vertex="1">
          <mxGeometry x="1180" y="260" width="40" height="60" as="geometry" />
        </mxCell>
        <mxCell id="HO5yLY1XyyV35MQ5ue3K-21" style="rounded=0;orthogonalLoop=1;jettySize=auto;html=1;exitX=0.855;exitY=0;exitDx=0;exitDy=4.35;exitPerimeter=0;entryX=0.16;entryY=0.55;entryDx=0;entryDy=0;entryPerimeter=0;dashed=1;" parent="1" source="HO5yLY1XyyV35MQ5ue3K-19" target="HO5yLY1XyyV35MQ5ue3K-20" edge="1">
          <mxGeometry relative="1" as="geometry" />
        </mxCell>
        <mxCell id="HO5yLY1XyyV35MQ5ue3K-19" value="" style="shape=cylinder3;whiteSpace=wrap;html=1;boundedLbl=1;backgroundOutline=1;size=15;fillColor=#FFFFFF;" parent="1" vertex="1">
          <mxGeometry x="1100" y="180" width="40" height="60" as="geometry" />
        </mxCell>
        <mxCell id="HO5yLY1XyyV35MQ5ue3K-20" value="MOMOKeeper" style="ellipse;shape=cloud;whiteSpace=wrap;html=1;fillColor=#FFFFFF;" parent="1" vertex="1">
          <mxGeometry x="1190" y="110" width="120" height="80" as="geometry" />
        </mxCell>
        <mxCell id="HO5yLY1XyyV35MQ5ue3K-39" style="edgeStyle=none;rounded=0;orthogonalLoop=1;jettySize=auto;html=1;exitX=1;exitY=0.5;exitDx=0;exitDy=0;entryX=0.07;entryY=0.4;entryDx=0;entryDy=0;entryPerimeter=0;dashed=1;" parent="1" source="HO5yLY1XyyV35MQ5ue3K-33" target="HO5yLY1XyyV35MQ5ue3K-38" edge="1">
          <mxGeometry relative="1" as="geometry" />
        </mxCell>
        <mxCell id="HO5yLY1XyyV35MQ5ue3K-33" value="Server1" style="rounded=1;whiteSpace=wrap;html=1;fillColor=#CCE5FF;" parent="1" vertex="1">
          <mxGeometry x="1050" y="460" width="120" height="60" as="geometry" />
        </mxCell>
        <mxCell id="HO5yLY1XyyV35MQ5ue3K-40" style="edgeStyle=none;rounded=0;orthogonalLoop=1;jettySize=auto;html=1;exitX=1;exitY=0.5;exitDx=0;exitDy=0;entryX=0.13;entryY=0.77;entryDx=0;entryDy=0;entryPerimeter=0;dashed=1;" parent="1" source="HO5yLY1XyyV35MQ5ue3K-34" target="HO5yLY1XyyV35MQ5ue3K-38" edge="1">
          <mxGeometry relative="1" as="geometry" />
        </mxCell>
        <mxCell id="HO5yLY1XyyV35MQ5ue3K-34" value="Server2" style="rounded=1;whiteSpace=wrap;html=1;fillColor=#CCE5FF;" parent="1" vertex="1">
          <mxGeometry x="1050" y="530" width="120" height="60" as="geometry" />
        </mxCell>
        <mxCell id="HO5yLY1XyyV35MQ5ue3K-41" style="edgeStyle=none;rounded=0;orthogonalLoop=1;jettySize=auto;html=1;exitX=1;exitY=0.5;exitDx=0;exitDy=0;entryX=0.31;entryY=0.8;entryDx=0;entryDy=0;entryPerimeter=0;dashed=1;" parent="1" source="HO5yLY1XyyV35MQ5ue3K-35" target="HO5yLY1XyyV35MQ5ue3K-38" edge="1">
          <mxGeometry relative="1" as="geometry" />
        </mxCell>
        <mxCell id="HO5yLY1XyyV35MQ5ue3K-35" value="ServerN" style="rounded=1;whiteSpace=wrap;html=1;fillColor=#CCE5FF;" parent="1" vertex="1">
          <mxGeometry x="1050" y="650" width="120" height="60" as="geometry" />
        </mxCell>
        <mxCell id="HO5yLY1XyyV35MQ5ue3K-36" value="" style="endArrow=none;dashed=1;html=1;dashPattern=1 3;strokeWidth=2;" parent="1" edge="1">
          <mxGeometry width="50" height="50" relative="1" as="geometry">
            <mxPoint x="1110" y="640" as="sourcePoint" />
            <mxPoint x="1110" y="600" as="targetPoint" />
          </mxGeometry>
        </mxCell>
        <mxCell id="HO5yLY1XyyV35MQ5ue3K-38" value="MOMOKeeper" style="ellipse;shape=cloud;whiteSpace=wrap;html=1;fillColor=#FFFFFF;" parent="1" vertex="1">
          <mxGeometry x="1220" y="440" width="120" height="80" as="geometry" />
        </mxCell>
        <mxCell id="HO5yLY1XyyV35MQ5ue3K-46" style="edgeStyle=none;rounded=0;orthogonalLoop=1;jettySize=auto;html=1;exitX=1;exitY=0.5;exitDx=0;exitDy=0;entryX=0;entryY=0.5;entryDx=0;entryDy=0;" parent="1" source="HO5yLY1XyyV35MQ5ue3K-42" target="HO5yLY1XyyV35MQ5ue3K-33" edge="1">
          <mxGeometry relative="1" as="geometry" />
        </mxCell>
        <mxCell id="HO5yLY1XyyV35MQ5ue3K-42" value="Client1" style="rounded=1;whiteSpace=wrap;html=1;fillColor=#FFFFFF;" parent="1" vertex="1">
          <mxGeometry x="880" y="460" width="120" height="60" as="geometry" />
        </mxCell>
        <mxCell id="HO5yLY1XyyV35MQ5ue3K-47" style="edgeStyle=none;rounded=0;orthogonalLoop=1;jettySize=auto;html=1;exitX=1;exitY=0.5;exitDx=0;exitDy=0;" parent="1" source="HO5yLY1XyyV35MQ5ue3K-43" target="HO5yLY1XyyV35MQ5ue3K-34" edge="1">
          <mxGeometry relative="1" as="geometry" />
        </mxCell>
        <mxCell id="HO5yLY1XyyV35MQ5ue3K-43" value="Client2" style="rounded=1;whiteSpace=wrap;html=1;fillColor=#FFFFFF;" parent="1" vertex="1">
          <mxGeometry x="880" y="530" width="120" height="60" as="geometry" />
        </mxCell>
        <mxCell id="HO5yLY1XyyV35MQ5ue3K-48" style="edgeStyle=none;rounded=0;orthogonalLoop=1;jettySize=auto;html=1;exitX=1;exitY=0.5;exitDx=0;exitDy=0;" parent="1" source="HO5yLY1XyyV35MQ5ue3K-44" target="HO5yLY1XyyV35MQ5ue3K-35" edge="1">
          <mxGeometry relative="1" as="geometry" />
        </mxCell>
        <mxCell id="HO5yLY1XyyV35MQ5ue3K-44" value="ClientN" style="rounded=1;whiteSpace=wrap;html=1;fillColor=#FFFFFF;" parent="1" vertex="1">
          <mxGeometry x="880" y="650" width="120" height="60" as="geometry" />
        </mxCell>
        <mxCell id="HO5yLY1XyyV35MQ5ue3K-45" value="" style="endArrow=none;dashed=1;html=1;dashPattern=1 3;strokeWidth=2;" parent="1" edge="1">
          <mxGeometry width="50" height="50" relative="1" as="geometry">
            <mxPoint x="940.0000000000002" y="639.9999999999999" as="sourcePoint" />
            <mxPoint x="940.0000000000002" y="599.9999999999999" as="targetPoint" />
          </mxGeometry>
        </mxCell>
        <mxCell id="HO5yLY1XyyV35MQ5ue3K-52" value="" style="shape=offPageConnector;whiteSpace=wrap;html=1;fillColor=#CCE5FF;size=0.37499999999999717;" parent="1" vertex="1">
          <mxGeometry x="1180" y="900" width="80" height="80" as="geometry" />
        </mxCell>
        <mxCell id="HO5yLY1XyyV35MQ5ue3K-55" value="" style="shape=offPageConnector;whiteSpace=wrap;html=1;fillColor=#FFFFFF;" parent="1" vertex="1">
          <mxGeometry x="1300" y="900" width="80" height="80" as="geometry" />
        </mxCell>
        <mxCell id="HO5yLY1XyyV35MQ5ue3K-56" value="" style="rounded=0;whiteSpace=wrap;html=1;fillColor=#FFFFFF;shadow=0;" parent="1" vertex="1">
          <mxGeometry x="1180" y="900" width="80" height="40" as="geometry" />
        </mxCell>
        <mxCell id="HO5yLY1XyyV35MQ5ue3K-57" value="" style="shape=offPageConnector;whiteSpace=wrap;html=1;fillColor=#FFFFFF;" parent="1" vertex="1">
          <mxGeometry x="940" y="950" width="80" height="80" as="geometry" />
        </mxCell>
        <mxCell id="HO5yLY1XyyV35MQ5ue3K-58" value="" style="shape=flexArrow;endArrow=classic;html=1;fillColor=#CCFFE6;" parent="1" edge="1">
          <mxGeometry width="50" height="50" relative="1" as="geometry">
            <mxPoint x="1070" y="929.29" as="sourcePoint" />
            <mxPoint x="1140" y="929.29" as="targetPoint" />
          </mxGeometry>
        </mxCell>
        <mxCell id="HO5yLY1XyyV35MQ5ue3K-61" value="" style="shape=flexArrow;endArrow=classic;html=1;fillColor=#CCFFE6;" parent="1" edge="1">
          <mxGeometry width="50" height="50" relative="1" as="geometry">
            <mxPoint x="1420" y="930" as="sourcePoint" />
            <mxPoint x="1500" y="930" as="targetPoint" />
          </mxGeometry>
        </mxCell>
        <mxCell id="HO5yLY1XyyV35MQ5ue3K-62" value="" style="shape=offPageConnector;whiteSpace=wrap;html=1;fillColor=#CCE5FF;size=0.37499999999999717;" parent="1" vertex="1">
          <mxGeometry x="1530" y="890" width="80" height="80" as="geometry" />
        </mxCell>
        <mxCell id="HO5yLY1XyyV35MQ5ue3K-63" value="" style="shape=offPageConnector;whiteSpace=wrap;html=1;fillColor=#CCE5FF;" parent="1" vertex="1">
          <mxGeometry x="1650" y="890" width="80" height="80" as="geometry" />
        </mxCell>
        <mxCell id="HO5yLY1XyyV35MQ5ue3K-65" value="" style="rounded=0;whiteSpace=wrap;html=1;fillColor=#FFFFFF;shadow=0;" parent="1" vertex="1">
          <mxGeometry x="1650" y="890" width="80" height="50" as="geometry" />
        </mxCell>
        <mxCell id="HO5yLY1XyyV35MQ5ue3K-66" value="" style="rounded=0;whiteSpace=wrap;html=1;fillColor=#FFFFFF;shadow=0;" parent="1" vertex="1">
          <mxGeometry x="1530" y="890" width="80" height="10" as="geometry" />
        </mxCell>
        <mxCell id="HO5yLY1XyyV35MQ5ue3K-71" value="" style="shape=offPageConnector;whiteSpace=wrap;html=1;fillColor=#FFFFFF;" parent="1" vertex="1">
          <mxGeometry x="1290" y="1040" width="110" height="110" as="geometry" />
        </mxCell>
        <mxCell id="HO5yLY1XyyV35MQ5ue3K-73" value="" style="shape=offPageConnector;whiteSpace=wrap;html=1;fillColor=#CCE5FF;size=0.37499999999999717;" parent="1" vertex="1">
          <mxGeometry x="1180" y="1040" width="80" height="80" as="geometry" />
        </mxCell>
        <mxCell id="HO5yLY1XyyV35MQ5ue3K-76" value="" style="rounded=0;whiteSpace=wrap;html=1;fillColor=#FFFFFF;shadow=0;" parent="1" vertex="1">
          <mxGeometry x="1180" y="1040" width="80" height="30" as="geometry" />
        </mxCell>
        <mxCell id="HO5yLY1XyyV35MQ5ue3K-77" value="" style="shape=flexArrow;endArrow=classic;html=1;fillColor=#CCFFE6;" parent="1" edge="1">
          <mxGeometry width="50" height="50" relative="1" as="geometry">
            <mxPoint x="1070" y="1050" as="sourcePoint" />
            <mxPoint x="1140" y="1050" as="targetPoint" />
          </mxGeometry>
        </mxCell>
        <mxCell id="HO5yLY1XyyV35MQ5ue3K-78" value="JVM" style="rounded=0;whiteSpace=wrap;html=1;shadow=0;fillColor=#CCE5FF;" parent="1" vertex="1">
          <mxGeometry x="1420" y="540" width="120" height="60" as="geometry" />
        </mxCell>
        <mxCell id="HO5yLY1XyyV35MQ5ue3K-79" value="Redis" style="rounded=0;whiteSpace=wrap;html=1;shadow=0;fillColor=#CCE5FF;" parent="1" vertex="1">
          <mxGeometry x="1420" y="620" width="120" height="60" as="geometry" />
        </mxCell>
        <mxCell id="HO5yLY1XyyV35MQ5ue3K-80" value="实例变更" style="text;html=1;strokeColor=none;fillColor=#CCE5FF;align=center;verticalAlign=middle;whiteSpace=wrap;rounded=0;shadow=0;" parent="1" vertex="1">
          <mxGeometry x="1330" y="640" width="60" height="20" as="geometry" />
        </mxCell>
        <mxCell id="HO5yLY1XyyV35MQ5ue3K-81" value="正常运行" style="text;html=1;strokeColor=none;fillColor=#CCE5FF;align=center;verticalAlign=middle;whiteSpace=wrap;rounded=0;shadow=0;" parent="1" vertex="1">
          <mxGeometry x="1330" y="565" width="60" height="20" as="geometry" />
        </mxCell>
      </root>
    </mxGraphModel>
  </diagram>
</mxfile>
